<svg width="15" height="20" viewBox="0 0 15 20" fill="none" xmlns="http://www.w3.org/2000/svg">
<path d="M7.49639 0.593804C7.52524 0.777397 8.07692 4.2852 8.07692 5.62504C8.07692 7.668 7.07452 9.12503 5.59255 9.71097L6.05769 19.0117C6.08293 19.5469 5.6899 20 5.19231 20H2.88462C2.39062 20 1.99399 19.5508 2.01923 19.0117L2.48438 9.71097C0.998798 9.12503 0 7.6641 0 5.62504C0 4.28129 0.551683 0.777397 0.580529 0.593804C0.695913 -0.199162 2.21394 -0.210881 2.30769 0.636773V6.15238C2.35457 6.28519 2.85216 6.27738 2.88462 6.15238C2.9351 5.1641 3.16947 0.714898 3.17308 0.613335C3.29207 -0.199162 4.78486 -0.199162 4.90024 0.613335C4.90745 0.718804 5.13822 5.1641 5.1887 6.15238C5.22115 6.27738 5.72236 6.28519 5.76562 6.15238V0.636773C5.85937 -0.206975 7.38101 -0.199162 7.49639 0.593804ZM11.7945 11.7539L11.2536 18.9844C11.2103 19.5313 11.6106 20 12.1154 20H14.1346C14.6142 20 15 19.582 15 19.0625V0.937553C15 0.42193 14.6142 5.58301e-05 14.1346 5.58301e-05C11.1599 5.58301e-05 6.15144 6.97269 11.7945 11.7539Z" fill="black"/>
</svg>
