<svg width="50" height="50" viewBox="0 0 50 50" fill="none" xmlns="http://www.w3.org/2000/svg">
<path d="M31.744 18.7903V29.0121H28.8911V41.1593H21.119V29.0222H18.2661V18.7903C18.2661 18.3468 18.4274 17.9637 18.7298 17.6512C19.0423 17.3387 19.4254 17.1774 19.869 17.1774H30.1411C30.5544 17.1774 30.9274 17.3387 31.2601 17.6512C31.5726 17.9738 31.744 18.3468 31.744 18.7903ZM21.5121 12.369C21.5121 10.0202 22.6714 8.84073 24.9899 8.84073C27.3085 8.84073 28.4677 10.0202 28.4677 12.369C28.4677 14.6875 27.3085 15.8468 24.9899 15.8468C22.6714 15.8468 21.5121 14.6875 21.5121 12.369ZM24.9597 0C39.254 0 50 11.0988 50 25C50 39.8286 38.0544 50 24.9597 50C11.4516 50 0 38.9617 0 25C0 11.6028 10.5544 0 24.9597 0ZM25.0403 4.50605C13.125 4.50605 4.50605 14.375 4.50605 25C4.50605 36.0686 13.6996 45.4435 25.0403 45.4435C35.4435 45.4435 45.4839 37.2681 45.4839 25C45.494 13.5282 36.3911 4.50605 25.0403 4.50605Z" fill="black"/>
</svg>
